# xmcd
#
# Track frame offsets:
#	150
#	13150
#	25797
#	37175
#	51775
#	67055
#	78022
#	87197
#	95412
#	103070
#	111030
#	129697
#	140525
#	152515
#	166020
#	172002
#	187120
#	200712
#	216212
#	225235
#	235600
#	248457
#	259600
#	275980
#	286940
#	298547
#	312715
#	323595
#
# Disc length: 4499 seconds
#
# Revision: 0
# Processed by: cddbd v1.4PL0 Copyright (c) Steve Scherf et al.
# Submitted via: dBpowerAMP V4.0
#
DISCID=8e11911c
DTITLE=Hank Snow - Thesaurus Transcriptions Vol 3
DYEAR=1991
DGENRE=Country
TTITLE0=My Good Gal's Gone - 1952
TTITLE1=Breeze - 1952
TTITLE2=This Cold War With You - 1952
TTITLE3=I Love You Nellie - 1952
TTITLE4=Beautiful Dreamer - 1952
TTITLE5=Twelfth Street Rag - 1952
TTITLE6=Bye Bye Blues - 1952
TTITLE7=Hilo March - 1952
TTITLE8=Orange Blossom Special - 1952
TTITLE9=Beaumont Ride - 1952
TTITLE10=Just When I Needed You - 1952
TTITLE11=Ninety Nine Year Blues - 1952
TTITLE12=My Blue Eyed Jane - 1952
TTITLE13=Yodeling Cowboy - 1952
TTITLE14=The Cannon Ball - 1952
TTITLE15=It's Been So Long Darlin' - 1952
TTITLE16=The Lover's Farewell - 1952
TTITLE17=You Nearly Lose Your Mind - 1952
TTITLE18=Kentucky Waltz - 1952
TTITLE19=There's A Pony Standing In His Stall - 1952
TTITLE20=Among My Souvenirs - 1952
TTITLE21=Little Old Home Down In New Orleans - 1952
TTITLE22=The Rainbow's End - 1952
TTITLE23=Tragic Romance - 1952
TTITLE24=We'll Never Say Goodbye, Just So Long - 1952
TTITLE25=I'll Go On Alone - 1952
TTITLE26=The Cowhand's Last Ride - 1952
TTITLE27=I Almost Lost My Mind - 1952
EXTD=
EXTT0=
EXTT1=
EXTT2=
EXTT3=
EXTT4=
EXTT5=
EXTT6=
EXTT7=
EXTT8=
EXTT9=
EXTT10=
EXTT11=
EXTT12=
EXTT13=
EXTT14=
EXTT15=
EXTT16=
EXTT17=
EXTT18=
EXTT19=
EXTT20=
EXTT21=
EXTT22=
EXTT23=
EXTT24=
EXTT25=
EXTT26=
EXTT27=
PLAYORDER=
